<?xml version="1.0" encoding="UTF-8"?>
<svg id="Layer_1" data-name="Layer 1" xmlns="http://www.w3.org/2000/svg" width="1200" height="1230.27" viewBox="0 0 1200 1230.27">
  <defs>
    <style>
      .cls-1 {
        font-family: SourceSansRoman-Black, 'Source Sans Variable';
        font-size: 150.16px;
        font-variation-settings: 'wght' 900;
        font-weight: 800;
      }

      .cls-1, .cls-2 {
        fill: #ebebeb;
      }

      .cls-3 {
        fill: #232323;
      }

      .cls-3, .cls-2 {
        stroke-width: 0px;
      }

      .cls-4 {
        letter-spacing: -.01em;
      }

      .cls-5 {
        letter-spacing: .02em;
      }

      .cls-6 {
        letter-spacing: .02em;
      }
    </style>
  </defs>
  <path class="cls-2" d="M935.6,976.72c-20.25,4.38-41.28,6.69-62.84,6.69h-376.46V64.33l59.23,670.58c13.63,79.37,67.88,128.73,122.9,113.45,29.61-4.58,57.7-27.03,75.96-65.1l5.38-11.25,66.88,137.8,108.95,66.91Z"/>
  <path class="cls-2" d="M1169.08,687.1c0,20.73-2.13,40.96-6.19,60.49-11.93,57.56-40.58,109.02-80.59,149.03-36.02,36-81.23,62.78-131.83,76.49l59.05-441.58,25.02-187.05c3.56-20.6,2.06-41.93-3.06-62.63,0-.06-.01-.11-.03-.17-.31-1.21-.62-2.41-.94-3.62.07.1.14.18.21.28,85.18,111.2,136.45,249.8,138.3,400.26.04,2.83.06,5.66.06,8.49Z"/>
  <path class="cls-2" d="M1169.08,687.1c0,20.73-2.13,40.96-6.19,60.49-44.36-37.14-101.01-110.33-120.58-141.99-.14-.23-.28-.45-.42-.68-22.59-36.77-31.44-80.36-25.72-123.13l18.36-137.29c3.56-20.6,2.06-41.93-3.06-62.63,0-.06-.01-.11-.03-.17-.23-1.11-.46-2.22-.73-3.34,85.18,111.2,136.45,249.8,138.3,400.26.04,2.83.06,5.66.06,8.49Z"/>
  <path class="cls-2" d="M922.63,166.64l-62.54,547.23c-2.28-6.73-4.93-13.26-7.96-19.58l-5.86-12.21c-7.28-15.18-16.08-27.86-25.93-37.89-9.35-9.56-19.63-16.75-30.38-21.49-.8-.35-1.65-.7-2.45-1-8.93-3.41-18.06-5.13-27.19-5.13-21.64,0-43.04,9.55-61.05,27.81-9.98,10.08-18.94,22.88-26.29,38.21l-12.46,25.99-70.14-625.33c-2.93-26.06-15.01-49.19-32.92-66.16t-.03-.03c35.06,3.17,69.36,9.04,102.65,17.35,2.31.58,4.66,1.15,6.96,1.77,7.05,1.83,14.04,3.83,21.01,5.86,9.81,2.9,19.54,6.07,29.22,9.48,5.08,1.7,10.11,3.55,15.11,5.38,69.62,26.1,133.78,63.43,190.26,109.74Z"/>
  <path class="cls-3" d="M1033.12,343.59c3.56-20.6,2.06-41.94-3.06-62.63,0-.07-.01-.11-.03-.17-.23-1.13-.46-2.22-.73-3.34-.07-.1-.14-.18-.21-.28-18.04-23.51-37.58-45.82-58.49-66.71-15.71-15.73-32.19-30.64-49.39-44.73l-62.54,547.22c-2.28-6.72-4.93-13.25-7.95-19.57l-5.86-12.21c-7.28-15.19-16.08-27.88-25.93-37.9-9.35-9.55-19.63-16.74-30.38-21.49-.8-.35-1.65-.7-2.45-.99-8.93-3.42-18.06-5.12-27.19-5.12-21.64,0-43.04,9.55-61.05,27.81-9.98,10.07-18.94,22.88-26.29,38.21l-12.46,25.98-70.14-625.32c-2.93-26.06-15.01-49.19-32.92-66.17t-.03-.01c-20.15-1.83-40.54-2.77-61.13-2.77v50.04l59.23,670.57c13.63,79.37,67.88,128.73,122.9,113.47,29.61-4.58,57.7-27.03,75.96-65.1l5.38-11.25,66.88,137.8,108.95,66.89c5-1.06,9.97-2.28,14.87-3.6l59.05-441.58,6.53-48.83,18.49-138.21Z"/>
  <path class="cls-2" d="M29.65,17.07h347.47c24.84,0,45,20.16,45,45v165.28c0,24.84-20.16,45-45,45H29.65V17.07h0Z"/>
  <path class="cls-2" d="M30,370h347c24.84,0,45,20.16,45,45v165c0,24.84-20.16,45-45,45H30v-255h0Z"/>
  <path class="cls-2" d="M29.65,728.13h347.47c24.84,0,45,20.16,45,45v165.28c0,24.84-20.16,45-45,45H29.65v-255.28h0Z"/>
  <text class="cls-1" transform="translate(29.65 1187.02)"><tspan class="cls-6" x="0" y="0">DE</tspan><tspan class="cls-5" x="187.4" y="0">V</tspan><tspan class="cls-6" x="275.54" y="0">E</tspan><tspan class="cls-4" x="362.79" y="0">L</tspan><tspan class="cls-6" x="440.12" y="0">OPMENT</tspan></text>
</svg>